<?xml version="1.0" encoding="UTF-8" standalone="no"?>
<svg
   xmlns:dc="http://purl.org/dc/elements/1.1/"
   xmlns:cc="http://creativecommons.org/ns#"
   xmlns:rdf="http://www.w3.org/1999/02/22-rdf-syntax-ns#"
   xmlns:svg="http://www.w3.org/2000/svg"
   xmlns="http://www.w3.org/2000/svg"
   xmlns:sodipodi="http://sodipodi.sourceforge.net/DTD/sodipodi-0.dtd"
   xmlns:inkscape="http://www.inkscape.org/namespaces/inkscape"
   viewBox="0 0 204.1 50"
   id="svg2985"
   version="1.1"
   inkscape:version="0.48.4 r9939"
   width="100%"
   height="100%"
   sodipodi:docname="gcb-logo.svg">
  <metadata
     id="metadata2997">
    <rdf:RDF>
      <cc:Work
         rdf:about="">
        <dc:format>image/svg+xml</dc:format>
        <dc:type
           rdf:resource="http://purl.org/dc/dcmitype/StillImage" />
      </cc:Work>
    </rdf:RDF>
  </metadata>
  <defs
     id="defs2995" />
  <sodipodi:namedview
     pagecolor="#ffffff"
     bordercolor="#666666"
     borderopacity="1"
     objecttolerance="10"
     gridtolerance="10"
     guidetolerance="10"
     inkscape:pageopacity="0"
     inkscape:pageshadow="2"
     inkscape:window-width="1600"
     inkscape:window-height="1134"
     id="namedview2993"
     showgrid="false"
     inkscape:zoom="6.88878"
     inkscape:cx="76.428627"
     inkscape:cy="25"
     inkscape:window-x="0"
     inkscape:window-y="27"
     inkscape:window-maximized="1"
     inkscape:current-layer="svg2985" />
  <style
     type="text/css"
     id="style2987">.st0{fill:#FFFFFF;}</style>
  <path
     class="st0"
     d="M74.1 17.9c1.9 1.4 4.2 2.1 7 2.1 3 0 5.5-.8 7.3-2.4 1.8-1.6 2.8-3.7 2.8-6.2v-.2h-10.7v2.4h7.4c-1 2.7-3.3 4.1-6.8 4.1-2.2 0-4-.6-5.4-1.7-1.4-1.1-2-2.5-2-4.3 0-1.8.8-3.4 2.4-4.5 1.4-1 3-1.5 5-1.5 2.6 0 4.7.9 6.3 2.6l2.4-1.2c-2.2-2.5-5.1-3.8-8.6-3.8-2.9 0-5.3.7-7.1 2.1-2.1 1.6-3.2 3.7-3.2 6.2 0 2.6 1.1 4.7 3.2 6.3zM113.5 16.2l-2.3-1.2c-1.6 1.7-3.8 2.6-6.6 2.6-2.3 0-4.2-.5-5.5-1.6s-2-2.5-2-4.3c0-1.7.7-3.2 2.1-4.3 1.4-1.1 3.2-1.7 5.3-1.7 2.9 0 5.1.9 6.7 2.6l2.4-.9c-2.1-2.7-5.1-4.1-9.1-4.1-2.8 0-5.1.7-6.9 2.1-2.2 1.6-3.3 3.6-3.3 6.2s1.1 4.7 3.2 6.3c1.8 1.4 4.2 2.1 7 2.1 2 0 3.7-.3 5.1-.9s2.7-1.5 3.9-2.9zM136.6 15.4c0-2.1-.9-3.4-2.7-4 1.4-.8 2.1-1.9 2.1-3.3 0-1.3-.5-2.4-1.4-3.1-.9-.8-2.2-1.2-3.8-1.2h-12.8v15.8h12.6c4-.1 6-1.4 6-4.2zm-16-9.3h10.3c.8 0 1.4.2 1.8.6.4.4.7.9.7 1.5s-.2 1.1-.7 1.5c-.5.4-1.1.6-1.8.6h-10.2v-4.2zm10 11.1h-10v-4.5h10.4c1.9 0 2.9.8 2.9 2.3 0 1.5-1.1 2.2-3.3 2.2zM73.9 25h-2.5c-.2 0-.2.1-.2.2v7.6c0 .2 0 .2.2.2h2.5c2 0 2.7-.9 2.7-1.8v-4.4c0-1-.6-1.8-2.7-1.8zm1.6 6c0 .6-.5 1-1.5 1h-1.5v-6.1h1.5c1.1 0 1.5.4 1.5 1v4.1zM82.7 27.1h-.7c-.2 0-.2.1-.2.2v4.1c-.2.2-.8.6-1.5.6s-.9-.3-.9-.8v-3.9c0-.2-.1-.2-.2-.2h-.7c-.2 0-.2.1-.2.2v4.2c0 .9.6 1.5 1.7 1.5 1 0 1.6-.4 1.9-.7v.4c0 .2.1.2.2.2h.6c.2 0 .2-.1.2-.2v-5.4c0-.1 0-.2-.2-.2zM87 29.7l2.1-2.3c.1-.1.1-.2-.1-.2h-.7c-.2 0-.3.1-.4.2l-1.8 1.9h-.3v-4.3c0-.2-.1-.2-.2-.2h-.7c-.2 0-.2.1-.2.2v7.8c0 .2.1.2.2.2h.7c.2 0 .2-.1.2-.2v-2.6h.3l2 2.6c.1.1.2.2.3.2h.8c.2 0 .2-.1.1-.2l-2.3-3.1zM94.6 31.5v-.2c0-.2-.1-.2-.2-.2h-.6c-.2 0-.2.1-.2.2v.1c0 .5-.2.8-1.2.8s-1.2-.3-1.2-.8v-1.1h3.2c.1 0 .2-.1.2-.2v-1.4c0-1-.6-1.6-2.2-1.6-1.7 0-2.3.7-2.3 1.6v2.8c0 1 .6 1.6 2.3 1.6 1.6 0 2.2-.6 2.2-1.6zm-3.5-2.8c0-.5.3-.8 1.2-.8.9 0 1.2.3 1.2.8v.7h-2.4v-.7zM101.1 24.9c-2 0-2.6.9-2.6 1.8v4.6c0 1 .6 1.8 2.6 1.8s2.6-.9 2.6-1.8v-.7c0-.2-.1-.2-.2-.2h-.7c-.2 0-.2.1-.2.2v.6c0 .6-.4 1-1.5 1s-1.5-.4-1.5-1v-4.2c0-.6.4-1 1.5-1s1.5.4 1.5 1v.4c0 .2.1.2.2.2h.7c.2 0 .2-.1.2-.2v-.6c.1-1.1-.5-1.9-2.6-1.9zM107.3 33.1c1.7 0 2.3-.7 2.3-1.6v-.2c0-.2-.1-.2-.2-.2h-.6c-.2 0-.2.1-.2.2v.1c0 .5-.2.8-1.2.8s-1.2-.3-1.2-.8v-1.1h3.2c.1 0 .2-.1.2-.2v-1.4c0-1-.6-1.6-2.2-1.6-1.7 0-2.3.7-2.3 1.6v2.8c-.1 1 .5 1.6 2.2 1.6zm-1.2-4.4c0-.5.3-.8 1.2-.8.9 0 1.2.3 1.2.8v.7h-2.4v-.7zM115.7 32.8v-4.2c0-.9-.6-1.5-1.7-1.5-1 0-1.6.4-2 .7v-.4c0-.2-.1-.2-.2-.2h-.6c-.2 0-.2.1-.2.2v5.4c0 .2.1.2.2.2h.7c.2 0 .2-.1.2-.2v-4.1c.3-.2.9-.6 1.6-.6.7 0 .9.3.9.8v3.9c0 .2.1.2.2.2h.7c.2 0 .2-.1.2-.2zM120.2 32.1h-.2c-.9 0-1.2-.3-1.2-.8v-3.2h1.2c.2 0 .2-.1.2-.2v-.5c0-.2-.1-.2-.2-.2h-1.2v-1.2c0-.2-.1-.2-.2-.2h-.7c-.2 0-.2.1-.2.2v1.2h-.7c-.2 0-.2.1-.2.2v.4c0 .2.1.2.2.2h.7v3.3c0 1 .5 1.6 2.2 1.6h.4c.2 0 .2-.1.2-.2v-.5c-.1-.1-.2-.1-.3-.1zM123.6 27c-1.7 0-2.3.7-2.3 1.6v2.8c0 1 .6 1.6 2.3 1.6 1.7 0 2.3-.7 2.3-1.6v-.2c0-.2-.1-.2-.2-.2h-.6c-.2 0-.2.1-.2.2v.1c0 .5-.2.8-1.2.8s-1.2-.3-1.2-.8v-1.1h3.2c.1 0 .2-.1.2-.2v-1.4c0-.9-.6-1.6-2.3-1.6zm1.2 2.5h-2.4v-.7c0-.5.3-.8 1.2-.8.9 0 1.2.3 1.2.8v.7zM130.3 27c-.9 0-1.5.5-1.8.8v-.5c0-.2-.1-.2-.2-.2h-.6c-.2 0-.2.1-.2.2v5.4c0 .2.1.2.2.2h.7c.2 0 .2-.1.2-.2v-4c.3-.2.9-.7 1.8-.8.2 0 .2-.1.2-.2v-.5c-.1-.1-.1-.2-.3-.2zM136.8 25.6c.2 0 .3-.1.3-.2v-.5c0-.2-.1-.2-.2-.2h-.1c-1.7 0-2.4.7-2.4 1.6v.9h-.7c-.2 0-.2.1-.2.2v.4c0 .2.1.2.2.2h.7v4.7c0 .2.1.2.2.2h.7c.2 0 .2-.1.2-.2v-4.7h1.2c.2 0 .2-.1.2-.2v-.5c0-.2-.1-.2-.2-.2h-1.2v-.8c0-.4.4-.7 1.3-.7zM140.2 33.1c1.7 0 2.4-.7 2.4-1.6v-2.8c0-1-.7-1.6-2.4-1.6s-2.4.7-2.4 1.6v2.8c0 1 .7 1.6 2.4 1.6zm-1.3-4.3c0-.5.4-.8 1.2-.8s1.2.3 1.2.8v2.6c0 .5-.4.8-1.2.8s-1.2-.3-1.2-.8v-2.6zM145.2 32.8v-4c.3-.2.9-.7 1.8-.8.2 0 .2-.1.2-.2v-.5c0-.2-.1-.2-.2-.2-.9 0-1.5.5-1.8.8v-.5c0-.2-.1-.2-.2-.2h-.6c-.2 0-.2.1-.2.2v5.4c0 .2.1.2.2.2h.7s.1-.1.1-.2zM153.4 24.9c-2 0-2.6.9-2.6 1.8v4.6c0 1 .6 1.8 2.6 1.8s2.6-.9 2.6-1.8v-2.1c0-.2-.1-.2-.2-.2h-2.3c-.2 0-.2.1-.2.2v.5c0 .2.1.2.2.2h1.4v1.1c0 .6-.4 1-1.5 1s-1.5-.4-1.5-1v-4.2c0-.6.4-1 1.5-1s1.5.4 1.5 1v.3c0 .2.1.2.2.2h.7c.2 0 .2-.1.2-.2v-.5c0-.9-.6-1.7-2.6-1.7zM159.7 27c-1.7 0-2.3.7-2.3 1.6v2.8c0 1 .6 1.6 2.3 1.6 1.7 0 2.3-.7 2.3-1.6v-.2c0-.2-.1-.2-.2-.2h-.6c-.2 0-.2.1-.2.2v.1c0 .5-.2.8-1.2.8s-1.2-.3-1.2-.8v-1.1h3.2c.1 0 .2-.1.2-.2v-1.4c0-.9-.6-1.6-2.3-1.6zm1.2 2.5h-2.4v-.7c0-.5.3-.8 1.2-.8.9 0 1.2.3 1.2.8v.7zM166.5 27c-1 0-1.6.4-2 .7v-.4c0-.2-.1-.2-.2-.2h-.6c-.2 0-.2.1-.2.2v5.4c0 .2.1.2.2.2h.7c.2 0 .2-.1.2-.2v-4.1c.3-.2.9-.6 1.6-.6.7 0 .9.3.9.8v3.9c0 .2.1.2.2.2h.7c.2 0 .2-.1.2-.2v-4.2c0-.8-.6-1.5-1.7-1.5zM172 27c-1.7 0-2.4.7-2.4 1.6v2.8c0 1 .7 1.6 2.4 1.6s2.4-.7 2.4-1.6v-2.8c0-.9-.7-1.6-2.4-1.6zm1.2 4.4c0 .5-.4.8-1.2.8s-1.2-.3-1.2-.8v-2.6c0-.5.4-.8 1.2-.8s1.2.3 1.2.8v2.6zM182.4 27c-1.1 0-1.7.6-2 .8-.2-.5-.7-.8-1.5-.8-1 0-1.6.4-1.9.7v-.4c0-.2-.1-.2-.2-.2h-.6c-.2 0-.2.1-.2.2v5.4c0 .2.1.2.2.2h.7c.2 0 .2-.1.2-.2v-4.1c.2-.2.8-.6 1.5-.6s.9.3.9.8v3.9c0 .2.1.2.2.2h.7c.2 0 .2-.1.2-.2v-4.2c.2-.2.8-.6 1.6-.6.7 0 .9.3.9.8v3.9c0 .2.1.2.2.2h.7c.2 0 .2-.1.2-.2v-4.2c-.1-.7-.7-1.4-1.8-1.4zM186.6 24.7h-.6c-.2 0-.2.1-.2.2v1.1c0 .2.1.2.2.2h.7c.2 0 .2-.1.2-.2v-1c0-.2-.1-.3-.3-.3zM186.6 27.1h-.6c-.2 0-.2.1-.2.2v5.4c0 .2.1.2.2.2h.7c.2 0 .2-.1.2-.2v-5.4c0-.1-.1-.2-.3-.2zM190.7 27c-1.7 0-2.3.7-2.3 1.6v2.8c0 1 .6 1.6 2.3 1.6 1.7 0 2.3-.7 2.3-1.6v-.3c0-.2-.1-.2-.2-.2h-.6c-.2 0-.2.1-.2.2v.2c0 .5-.3.8-1.2.8-.9 0-1.2-.3-1.2-.8v-2.7c0-.5.3-.8 1.2-.8.9 0 1.2.3 1.2.8v.1c0 .2.1.2.2.2h.6c.2 0 .2-.1.2-.2v-.2c-.1-.8-.6-1.5-2.3-1.5zM73.3 38.6c-1.6 0-2.2.7-2.2 1.6v.2c0 .2.1.2.2.2h.6c.2 0 .2-.1.2-.2v-.1c0-.5.3-.8 1.2-.8s1.1.3 1.1.8v.9h-1.9c-1.1 0-1.6.7-1.6 1.4v.6c0 .8.6 1.4 1.7 1.4.9 0 1.5-.4 1.9-.7v.3c0 .2.1.2.2.2h.6c.2 0 .2-.1.2-.2v-4.1c.1-.8-.5-1.5-2.2-1.5zm1.2 4.6c-.3.2-.8.6-1.6.6-.6 0-.9-.2-.9-.7v-.2c0-.5.2-.7.8-.7h1.6v1zM80.2 38.6c-1 0-1.6.4-2 .7v-.4c0-.2-.1-.2-.2-.2h-.6c-.2 0-.2.1-.2.2v5.4c0 .2.1.2.2.2h.7c.2 0 .2-.1.2-.2v-4.1c.3-.2.9-.6 1.6-.6.7 0 .9.3.9.8v3.9c0 .2.1.2.2.2h.7c.2 0 .2-.1.2-.2v-4.2c0-.8-.6-1.5-1.7-1.5zM87.9 36.3h-.7c-.2 0-.2.1-.2.2v2.7c-.4-.3-1-.7-1.9-.7-1.1 0-1.7.6-1.7 1.6v2.8c0 1 .5 1.6 1.7 1.6 1 0 1.6-.4 2-.7v.4c0 .2.1.2.2.2h.6c.2 0 .2-.1.2-.2v-7.8s0-.1-.2-.1zm-.9 6.8c-.3.2-.9.6-1.6.6-.7 0-.9-.4-.9-.8v-2.5c0-.4.2-.8.9-.8s1.4.4 1.6.6v2.9zM94.9 36.5c-2 0-2.6.9-2.6 1.8v4.6c0 1 .6 1.8 2.6 1.8s2.6-.9 2.6-1.8v-.7c0-.2-.1-.2-.2-.2h-.7c-.2 0-.2.1-.2.2v.6c0 .6-.4 1-1.5 1s-1.5-.4-1.5-1v-4.2c0-.6.4-1 1.5-1s1.5.4 1.5 1v.4c0 .2.1.2.2.2h.7c.2 0 .2-.1.2-.2v-.6c0-1.1-.6-1.9-2.6-1.9zM101.1 38.6c-1.7 0-2.4.7-2.4 1.6v2.8c0 1 .7 1.6 2.4 1.6s2.4-.7 2.4-1.6v-2.8c0-.9-.7-1.6-2.4-1.6zm1.3 4.4c0 .5-.4.8-1.2.8s-1.2-.3-1.2-.8v-2.6c0-.5.4-.8 1.2-.8s1.2.3 1.2.8v2.6zM111.6 38.6c-1.1 0-1.7.6-2 .8-.2-.5-.7-.8-1.5-.8-1 0-1.6.4-1.9.7v-.4c0-.2-.1-.2-.2-.2h-.6c-.2 0-.2.1-.2.2v5.4c0 .2.1.2.2.2h.7c.2 0 .2-.1.2-.2v-4.1c.2-.2.8-.6 1.5-.6s.9.3.9.8v3.9c0 .2.1.2.2.2h.7c.2 0 .2-.1.2-.2v-4.2c.2-.2.8-.6 1.6-.6.7 0 .9.3.9.8v3.9c0 .2.1.2.2.2h.7c.2 0 .2-.1.2-.2v-4.2c-.1-.7-.7-1.4-1.8-1.4zM117.9 38.6c-1 0-1.6.4-2 .7v-.4c0-.2-.1-.2-.2-.2h-.6c-.2 0-.2.1-.2.2v7.8c0 .2.1.2.2.2h.7c.2 0 .2-.1.2-.2v-2.7c.3.3 1 .7 1.9.7 1.1 0 1.7-.6 1.7-1.6v-2.8c0-1-.5-1.7-1.7-1.7zm.6 4.3c0 .4-.2.8-.9.8-.8 0-1.4-.4-1.6-.6v-2.8c.3-.2.8-.6 1.6-.6.7 0 .9.4.9.8v2.4zM125.5 38.7h-.7c-.2 0-.2.1-.2.2v4.1c-.2.2-.8.6-1.5.6s-.9-.3-.9-.8v-3.8c0-.2-.1-.2-.2-.2h-.7c-.2 0-.2.1-.2.2v4.2c0 .9.6 1.5 1.7 1.5 1 0 1.6-.4 1.9-.7v.4c0 .2.1.2.2.2h.6c.2 0 .2-.1.2-.2v-5.4c.1-.2 0-.3-.2-.3zM130.3 43.7h-.2c-.9 0-1.2-.3-1.2-.8v-3.2h1.2c.2 0 .2-.1.2-.2v-.5c0-.2-.1-.2-.2-.2h-1.2v-1.2c0-.2-.1-.2-.2-.2h-.7c-.2 0-.2.1-.2.2v1.2h-.7c-.2 0-.2.1-.2.2v.4c0 .2.1.2.2.2h.7v3.4c0 1 .5 1.6 2.2 1.6h.4c.2 0 .2-.1.2-.2v-.5c-.1-.2-.2-.2-.3-.2zM133.8 38.6c-1.6 0-2.2.7-2.2 1.6v.2c0 .2.1.2.2.2h.6c.2 0 .2-.1.2-.2v-.1c0-.5.3-.8 1.2-.8s1.1.3 1.1.8v.9h-1.9c-1.1 0-1.6.7-1.6 1.4v.6c0 .8.6 1.4 1.7 1.4.9 0 1.5-.4 1.9-.7v.3c0 .2.1.2.2.2h.6c.2 0 .2-.1.2-.2v-4.1c.1-.8-.5-1.5-2.2-1.5zm1.2 4.6c-.3.2-.8.6-1.6.6-.6 0-.9-.2-.9-.7v-.2c0-.5.2-.7.8-.7h1.6v1zM140.5 43.7h-.2c-.9 0-1.2-.3-1.2-.8v-3.2h1.2c.2 0 .2-.1.2-.2v-.5c0-.2-.1-.2-.2-.2h-1.2v-1.2c0-.2-.1-.2-.2-.2h-.7c-.2 0-.2.1-.2.2v1.2h-.7c-.2 0-.2.1-.2.2v.4c0 .2.1.2.2.2h.7v3.4c0 1 .5 1.6 2.2 1.6h.4c.2 0 .2-.1.2-.2v-.5c-.1-.2-.1-.2-.3-.2zM142.8 36.3h-.7c-.2 0-.2.1-.2.2v1.1c0 .2.1.2.2.2h.7c.2 0 .2-.1.2-.2v-1.1c0-.1-.1-.2-.2-.2zM142.8 38.7h-.7c-.2 0-.2.1-.2.2v5.4c0 .2.1.2.2.2h.7c.2 0 .2-.1.2-.2v-5.3c0-.2-.1-.3-.2-.3zM146.9 38.6c-1.7 0-2.4.7-2.4 1.6v2.8c0 1 .7 1.6 2.4 1.6s2.4-.7 2.4-1.6v-2.8c0-.9-.7-1.6-2.4-1.6zm1.2 4.4c0 .5-.4.8-1.2.8s-1.2-.3-1.2-.8v-2.6c0-.5.4-.8 1.2-.8s1.2.3 1.2.8v2.6zM153.9 38.6c-1 0-1.6.4-2 .7v-.4c0-.2-.1-.2-.2-.2h-.7c-.2 0-.2.1-.2.2v5.4c0 .2.1.2.2.2h.7c.2 0 .2-.1.2-.2v-4.1c.3-.2.9-.6 1.6-.6.7 0 .9.3.9.8v3.9c0 .2.1.2.2.2h.7c.2 0 .2-.1.2-.2v-4.2c0-.8-.5-1.5-1.6-1.5zM159.3 38.6c-1.6 0-2.2.7-2.2 1.6v.2c0 .2.1.2.2.2h.6c.2 0 .2-.1.2-.2v-.1c0-.5.3-.8 1.2-.8s1.1.3 1.1.8v.9h-1.9c-1.1 0-1.6.7-1.6 1.4v.6c0 .8.6 1.4 1.7 1.4.9 0 1.5-.4 1.9-.7v.3c0 .2.1.2.2.2h.6c.2 0 .2-.1.2-.2v-4.1c.1-.8-.5-1.5-2.2-1.5zm1.2 4.6c-.3.2-.8.6-1.6.6-.6 0-.9-.2-.9-.7v-.2c0-.5.2-.7.8-.7h1.6v1zM164.1 36.3h-.7c-.2 0-.2.1-.2.2v7.8c0 .2.1.2.2.2h.7c.2 0 .2-.1.2-.2v-7.8c0-.1 0-.2-.2-.2zM172.6 40.4c.7-.3 1-.7 1-1.4v-.7c0-1-.7-1.7-2.7-1.7h-2.1c-.2 0-.2.1-.2.2v7.6c0 .2.1.2.2.2h2.4c2 0 2.7-.8 2.7-1.8v-1c.1-.7-.4-1.2-1.3-1.4zm-2.8-2.9h1.2c1.1 0 1.5.3 1.5.9v.6c0 .7-.5 1-1.5 1h-1.2v-2.5zm3 5.1c0 .7-.5 1-1.5 1h-1.5v-2.7h1.5c1.1 0 1.5.4 1.5 1v.7zM176.4 38.7h-.7c-.2 0-.2.1-.2.2v5.4c0 .2.1.2.2.2h.7c.2 0 .2-.1.2-.2v-5.3c0-.2-.1-.3-.2-.3zM176.4 36.3h-.7c-.2 0-.2.1-.2.2v1.1c0 .2.1.2.2.2h.7c.2 0 .2-.1.2-.2v-1.1c0-.1-.1-.2-.2-.2zM180.5 38.6c-1.7 0-2.4.7-2.4 1.6v2.8c0 1 .7 1.6 2.4 1.6s2.4-.7 2.4-1.6v-2.8c-.1-.9-.7-1.6-2.4-1.6zm1.2 4.4c0 .5-.4.8-1.2.8s-1.2-.3-1.2-.8v-2.6c0-.5.4-.8 1.2-.8s1.2.3 1.2.8v2.6zM185.3 36.3h-.7c-.2 0-.2.1-.2.2v7.8c0 .2.1.2.2.2h.7c.2 0 .2-.1.2-.2v-7.8c0-.1 0-.2-.2-.2zM189.4 38.6c-1.7 0-2.4.7-2.4 1.6v2.8c0 1 .7 1.6 2.4 1.6s2.4-.7 2.4-1.6v-2.8c0-.9-.7-1.6-2.4-1.6zm1.3 4.4c0 .5-.4.8-1.2.8s-1.2-.3-1.2-.8v-2.6c0-.5.4-.8 1.2-.8s1.2.3 1.2.8v2.6zM197.7 38.7h-.6c-.2 0-.2.1-.2.2v.4c-.3-.3-1-.7-2-.7-1.1 0-1.7.6-1.7 1.6v2.8c0 1 .5 1.6 1.7 1.6 1 0 1.6-.4 1.9-.7v1.2c0 .5-.3.8-1.2.8h-1.6c-.2 0-.2.1-.2.2v.5c0 .2.1.2.2.2h1.6c1.7 0 2.3-.7 2.3-1.6v-6.2c.1-.2 0-.3-.2-.3zm-.9 4.4c-.3.2-.9.6-1.6.6-.7 0-.9-.4-.9-.8v-2.5c0-.4.2-.8.9-.8s1.4.4 1.6.6v2.9zM203.7 38.7h-.6c-.2 0-.2.1-.3.2l-1.2 3.4c-.1.3-.2.7-.2.8 0 0-.1-.5-.2-.8l-1.1-3.4c0-.1-.1-.2-.3-.2h-.7c-.2 0-.2.1-.2.2l2 5.7-.7 2.1c0 .2 0 .2.2.2h.5c.2 0 .2-.1.2-.2l2.7-7.8c.2-.1.1-.2-.1-.2zM42.2 37l-2.7-4.7c1.8-1.4 3.1-3.5 3.4-5.9h5.4c.5 2.1 2.3 3.6 4.5 3.6 2.5 0 4.6-2.1 4.6-4.6 0-2.5-2.1-4.6-4.6-4.6-2.2 0-4 1.5-4.5 3.6h-5.4c-.3-2.4-1.6-4.5-3.4-5.9l5.6-9.5c2 .6 4.3-.2 5.4-2.1 1.3-2.2.5-5-1.7-6.3-2.2-1.3-5-.5-6.3 1.7-1.1 1.9-.7 4.3.9 5.7l-1.4 2.5-4.1 7.1c-1-.5-2.2-.7-3.4-.7-1.2 0-2.4.3-3.4.7l-2.7-4.7c1.6-1.4 2-3.8.9-5.7-1.3-2.2-4.1-3-6.3-1.7s-3 4.1-1.7 6.3c1.1 1.9 3.4 2.7 5.4 2.1l2.7 4.7c-1.8 1.4-3.1 3.5-3.4 5.9h-16.9c-.5-2.1-2.3-3.6-4.5-3.6-2.5 0-4.6 2.1-4.6 4.6 0 2.5 2.1 4.6 4.6 4.6 2.2 0 4-1.5 4.5-3.6h16.8c.3 2.4 1.6 4.5 3.4 5.9l-2.7 4.6c-2-.6-4.3.2-5.4 2.1-1.3 2.2-.5 5 1.7 6.3 2.2 1.3 5 .5 6.3-1.7 1.1-1.9.7-4.3-.9-5.7l2.7-4.7c1 .5 2.2.7 3.4.7 1.2 0 2.4-.3 3.4-.7l2.7 4.7c-1.6 1.4-2 3.8-.9 5.7 1.3 2.2 4.1 3 6.3 1.7s3-4.1 1.7-6.3c-1.1-1.9-3.4-2.7-5.4-2.1zm-14.4-11.5c0-3.6 3-6.6 6.6-6.6s6.6 3 6.6 6.6c0 3.6-3 6.6-6.6 6.6-3.7 0-6.6-3-6.6-6.6zM26.6 18l-1.1-1.9c-2.4.1-4.8-1.1-6.1-3.3-1.8-3.2-.7-7.2 2.4-9 3.2-1.8 7.2-.7 9 2.4 1.3 2.2 1.1 4.9-.2 6.9l1.1 1.9c2.2-2.7 2.7-6.6.8-9.8-2.2-4.1-7.5-5.5-11.6-3.1s-5.5 7.6-3.1 11.7c1.8 3.2 5.4 4.8 8.8 4.2zM30.7 37.8c1.3 2 1.5 4.7.2 6.9-1.8 3.2-5.9 4.2-9 2.4-3.2-1.8-4.2-5.9-2.4-9 1.3-2.2 3.7-3.4 6.1-3.3l1.1-1.9c-3.4-.6-7 1-8.9 4.2-2.4 4.1-1 9.4 3.1 11.7 4.1 2.4 9.4 1 11.7-3.1 1.8-3.2 1.4-7.1-.8-9.8l-1.1 1.9zM52.8 16.9c-3.7 0-6.8 2.3-8.1 5.6h2.2c1.1-2.1 3.3-3.6 5.9-3.6 3.6 0 6.6 3 6.6 6.6 0 3.6-3 6.6-6.6 6.6-2.6 0-4.8-1.5-5.9-3.6h-2.2c1.2 3.3 4.4 5.6 8.1 5.6 4.7 0 8.6-3.8 8.6-8.6s-3.9-8.6-8.6-8.6z"
     id="path2989"
     style="fill:#004a8d;fill-opacity:1" />
  <circle
     class="st0"
     cx="34.4"
     cy="25.5"
     r="4.6"
     id="circle2991"
     style="fill:#004a8d;fill-opacity:1" />
</svg>
